<svg id="Group_8241" data-name="Group 8241" xmlns="http://www.w3.org/2000/svg" width="21.803" height="21.803" viewBox="0 0 21.803 21.803">
  <path id="Path_27790" data-name="Path 27790" d="M17.26,1.817h-.908V.908a.908.908,0,0,0-1.817,0v.908H7.268V.908a.908.908,0,1,0-1.817,0v.908H4.542A4.548,4.548,0,0,0,0,6.359v10.9A4.548,4.548,0,0,0,4.542,21.8H17.26A4.548,4.548,0,0,0,21.8,17.26V6.359A4.548,4.548,0,0,0,17.26,1.817ZM1.817,6.359A2.725,2.725,0,0,1,4.542,3.634H17.26a2.725,2.725,0,0,1,2.725,2.725v.908H1.817ZM17.26,19.986H4.542A2.725,2.725,0,0,1,1.817,17.26V9.084H19.986V17.26A2.725,2.725,0,0,1,17.26,19.986Z" transform="translate(0)" fill="#6c757d"/>
  <ellipse id="Ellipse_57" data-name="Ellipse 57" cx="1.363" cy="1.363" rx="1.363" ry="1.363" transform="translate(9.539 12.264)" fill="#6c757d"/>
  <ellipse id="Ellipse_58" data-name="Ellipse 58" cx="1.363" cy="1.363" rx="1.363" ry="1.363" transform="translate(4.996 12.264)" fill="#6c757d"/>
  <ellipse id="Ellipse_59" data-name="Ellipse 59" cx="1.363" cy="1.363" rx="1.363" ry="1.363" transform="translate(14.081 12.264)" fill="#6c757d"/>
</svg>
