<svg xmlns="http://www.w3.org/2000/svg" width="22.013" height="22" viewBox="0 0 22.013 22">
  <path id="home" d="M21.207,8.32,14.25,1.362a4.593,4.593,0,0,0-6.486,0L.806,8.32A2.731,2.731,0,0,0,0,10.265v9a2.752,2.752,0,0,0,2.752,2.752h16.51a2.752,2.752,0,0,0,2.752-2.752v-9A2.731,2.731,0,0,0,21.207,8.32ZM13.758,20.187h-5.5V16.578a2.752,2.752,0,1,1,5.5,0Zm6.42-.917a.917.917,0,0,1-.917.917H15.592V16.578a4.586,4.586,0,1,0-9.172,0v3.608H2.752a.917.917,0,0,1-.917-.917v-9A.925.925,0,0,1,2.1,9.617L9.06,2.662a2.759,2.759,0,0,1,3.893,0L19.91,9.62a.925.925,0,0,1,.269.646Z" transform="translate(0 -0.021)" fill="#6c757d"/>
</svg>
