<svg id="user" xmlns="http://www.w3.org/2000/svg" width="16.5" height="22" viewBox="0 0 16.5 22">
  <path id="Path_27788" data-name="Path 27788" d="M11.5,11A5.5,5.5,0,1,0,6,5.5,5.5,5.5,0,0,0,11.5,11Zm0-9.167A3.667,3.667,0,1,1,7.833,5.5,3.667,3.667,0,0,1,11.5,1.833Z" transform="translate(-3.25)" fill="#6c757d"/>
  <path id="Path_27789" data-name="Path 27789" d="M11.25,14A8.259,8.259,0,0,0,3,22.25a.917.917,0,1,0,1.833,0,6.417,6.417,0,0,1,12.833,0,.917.917,0,0,0,1.833,0A8.259,8.259,0,0,0,11.25,14Z" transform="translate(-3 -1.167)" fill="#6c757d"/>
</svg>
