<svg xmlns="http://www.w3.org/2000/svg" width="23.533" height="19.611" viewBox="0 0 23.533 19.611">
  <path id="wallet" d="M20.592,5.922H4.9a2.953,2.953,0,0,1-2.192-.98A2.937,2.937,0,0,1,4.9,3.961h17.65a.981.981,0,1,0,0-1.961H4.9A4.9,4.9,0,0,0,0,6.9v9.806a4.9,4.9,0,0,0,4.9,4.9H20.592a2.941,2.941,0,0,0,2.942-2.942V8.864A2.941,2.941,0,0,0,20.592,5.922Zm.981,12.747a.982.982,0,0,1-.981.981H4.9a2.945,2.945,0,0,1-2.942-2.942V6.9A4.915,4.915,0,0,0,4.9,7.883H20.592a.982.982,0,0,1,.981.981Zm-1.961-4.9a.981.981,0,1,1-.981-.981A.981.981,0,0,1,19.611,13.767Z" transform="translate(0 -2)" fill="#6c757d"/>
</svg>
